<svg width="59" height="33" viewBox="0 0 59 33" fill="none" xmlns="http://www.w3.org/2000/svg">
<path d="M33.25 9C33.25 9.42967 33.1244 10.02 32.8773 10.7333C32.634 11.4355 32.2901 12.2089 31.8939 12.9887C31.2874 14.1821 30.5737 15.3602 29.9482 16.2797C29.3712 15.5082 28.6996 14.3894 28.1112 13.1864C27.7162 12.3786 27.3711 11.558 27.1265 10.8147C26.8775 10.0583 26.75 9.43377 26.75 9C26.75 7.20507 28.2051 5.75 30 5.75C31.7949 5.75 33.25 7.20507 33.25 9Z" stroke="#909BA3" stroke-opacity="0.76" stroke-width="1.5"/>
<path d="M36.25 8.4C36.25 9.14962 36.0131 10.1417 35.5741 11.3004C35.1397 12.4467 34.5286 13.7022 33.8288 14.9611C32.6096 17.1548 31.1446 19.3174 29.9391 20.8727C28.793 19.6135 27.3783 17.5176 26.177 15.2717C25.4786 13.9662 24.8662 12.6355 24.4303 11.4246C23.9891 10.1992 23.75 9.15411 23.75 8.4C23.75 5.34143 26.4835 2.75 30 2.75C33.5165 2.75 36.25 5.34143 36.25 8.4Z" stroke="#909BA3" stroke-opacity="0.76" stroke-width="1.5"/>
<line x1="16" y1="27.25" x2="44" y2="27.25" stroke="#909BA3" stroke-opacity="0.76" stroke-width="1.5"/>
<path d="M40.5 15L43.2556 26.941" stroke="#909BA3" stroke-opacity="0.76" stroke-width="1.5"/>
<line x1="18.7398" y1="15.1233" x2="16.7398" y2="27.1233" stroke="#909BA3" stroke-opacity="0.76" stroke-width="1.5"/>
<path d="M18 15.5H26M41 15.5H33.5" stroke="#909BA3" stroke-opacity="0.76" stroke-width="1.5"/>
<path d="M18 19.25H28.5M42 19.25H31" stroke="#909BA3" stroke-opacity="0.76" stroke-width="1.5"/>
<line x1="17" y1="23.25" x2="42" y2="23.25" stroke="#909BA3" stroke-opacity="0.76" stroke-width="1.5"/>
<line x1="23.7469" y1="16.0679" x2="22.7469" y2="27.0679" stroke="#909BA3" stroke-opacity="0.76" stroke-width="1.5"/>
<path d="M35.5 15.5L37 27.5" stroke="#909BA3" stroke-opacity="0.76" stroke-width="1.5"/>
</svg>
