<svg width="59" height="33" viewBox="0 0 59 33" fill="none" xmlns="http://www.w3.org/2000/svg">
<rect x="13" width="32" height="29" fill="#8DC5F0"/>
<rect x="29" width="16" height="29" fill="#3980B6"/>
<rect x="31" y="3" width="12" height="1" fill="#A2D0F4"/>
<rect x="31" y="23" width="12" height="1" fill="#A2D0F4"/>
<rect x="31" y="26" width="12" height="1" fill="#A2D0F4"/>
<rect x="35" y="6" width="8" height="1" fill="#A2D0F4"/>
<rect x="31" y="9" width="12" height="1" fill="#A2D0F4"/>
<path d="M18.6464 13.6464C18.4512 13.8417 18.4512 14.1583 18.6464 14.3536L21.8284 17.5355C22.0237 17.7308 22.3403 17.7308 22.5355 17.5355C22.7308 17.3403 22.7308 17.0237 22.5355 16.8284L19.7071 14L22.5355 11.1716C22.7308 10.9763 22.7308 10.6597 22.5355 10.4645C22.3403 10.2692 22.0237 10.2692 21.8284 10.4645L18.6464 13.6464ZM26 13.5H19V14.5H26V13.5Z" fill="#517592"/>
</svg>
