<svg width="59" height="33" viewBox="0 0 59 33" fill="none" xmlns="http://www.w3.org/2000/svg">
<g clip-path="url(#clip0)">
<path d="M12.4055 0.94397H46.4055C47.0959 0.94397 47.6555 1.50361 47.6555 2.19397V13.5844C47.6555 14.2747 47.0959 14.8344 46.4055 14.8344H36.3958C35.809 14.8344 35.2377 15.022 34.7652 15.3699L29.7651 19.0517C29.3361 19.3676 28.7541 19.3769 28.3152 19.0748L22.858 15.319C22.3994 15.0034 21.8557 14.8344 21.2989 14.8344H12.4055C11.7152 14.8344 11.1555 14.2747 11.1555 13.5844V2.19397C11.1555 1.50361 11.7152 0.94397 12.4055 0.94397Z" stroke="#9BA5A7" stroke-opacity="0.79" stroke-width="1.5"/>
<circle cx="29" cy="27" r="5.25" stroke="#9BA5A7" stroke-opacity="0.79" stroke-width="1.5"/>
<path d="M28.3179 29.7979C28.325 29.3717 28.3734 29.0352 28.4629 28.7881C28.5524 28.541 28.735 28.2671 29.0107 27.9663L29.7144 27.2412C30.0151 26.901 30.1655 26.5358 30.1655 26.1455C30.1655 25.7695 30.0671 25.4759 29.8701 25.2646C29.6732 25.0498 29.3867 24.9424 29.0107 24.9424C28.6455 24.9424 28.3519 25.0391 28.1299 25.2324C27.9079 25.4258 27.7969 25.6854 27.7969 26.0112H26.8032C26.8104 25.4312 27.0163 24.9639 27.4209 24.6094C27.8291 24.2513 28.359 24.0723 29.0107 24.0723C29.6875 24.0723 30.2139 24.2549 30.5898 24.6201C30.9694 24.9818 31.1592 25.4795 31.1592 26.1133C31.1592 26.7399 30.8691 27.3576 30.2891 27.9663L29.7036 28.5464C29.4422 28.8364 29.3115 29.2536 29.3115 29.7979H28.3179ZM28.2749 31.5005C28.2749 31.3394 28.3232 31.2051 28.4199 31.0977C28.5202 30.9867 28.667 30.9312 28.8604 30.9312C29.0537 30.9312 29.2005 30.9867 29.3008 31.0977C29.401 31.2051 29.4512 31.3394 29.4512 31.5005C29.4512 31.6616 29.401 31.7959 29.3008 31.9033C29.2005 32.0072 29.0537 32.0591 28.8604 32.0591C28.667 32.0591 28.5202 32.0072 28.4199 31.9033C28.3232 31.7959 28.2749 31.6616 28.2749 31.5005Z" fill="#BEBEBE"/>
<line x1="19" y1="6.25" x2="41" y2="6.25" stroke="#9BA5A7" stroke-opacity="0.79" stroke-width="1.5"/>
<line x1="21" y1="10.25" x2="39" y2="10.25" stroke="#9BA5A7" stroke-opacity="0.79" stroke-width="1.5"/>
</g>
<defs>
<clipPath id="clip0">
<rect width="59" height="33" fill="white"/>
</clipPath>
</defs>
</svg>
