<svg width="59" height="33" viewBox="0 0 59 33" fill="none" xmlns="http://www.w3.org/2000/svg">
<path d="M32.25 11.44C32.25 12.7593 31.5395 14.8341 30.5236 17.0093C29.7175 18.7352 28.7612 20.4374 27.9424 21.726C27.1752 20.652 26.2662 19.021 25.4809 17.2742C24.983 16.1665 24.5463 15.0373 24.2354 14.0097C23.921 12.9702 23.75 12.0821 23.75 11.44C23.75 8.78898 25.7111 6.75 28 6.75C30.2889 6.75 32.25 8.78898 32.25 11.44Z" stroke="#9FA7AD" stroke-opacity="0.76" stroke-width="1.5"/>
<path d="M36.25 10.96C36.25 12.074 35.9293 13.5101 35.36 15.1461C34.7946 16.771 34.0016 18.5437 33.0976 20.3147C31.4758 23.492 29.5181 26.6222 27.9339 28.8242C26.4109 27.0558 24.5083 24.0036 22.9075 20.745C22.0047 18.9072 21.2106 17.0291 20.6437 15.3147C20.0725 13.5871 19.75 12.0781 19.75 10.96C19.75 6.42889 23.4405 2.75 28 2.75C32.5595 2.75 36.25 6.42889 36.25 10.96Z" stroke="#9FA7AD" stroke-opacity="0.76" stroke-width="1.5"/>
</svg>
