<?xml version="1.0" encoding="UTF-8" standalone="no"?>
<svg
   xmlns:dc="http://purl.org/dc/elements/1.1/"
   xmlns:cc="http://creativecommons.org/ns#"
   xmlns:rdf="http://www.w3.org/1999/02/22-rdf-syntax-ns#"
   xmlns:svg="http://www.w3.org/2000/svg"
   xmlns="http://www.w3.org/2000/svg"
   xmlns:sodipodi="http://sodipodi.sourceforge.net/DTD/sodipodi-0.dtd"
   xmlns:inkscape="http://www.inkscape.org/namespaces/inkscape"
   inkscape:version="1.0 (4035a4f, 2020-05-01)"
   sodipodi:docname="icon-testimonial.svg"
   xml:space="preserve"
   style="enable-background:new 0 0 70 38.6;"
   viewBox="0 0 70 38.6"
   y="0px"
   x="0px"
   id="Layer_1"
   version="1.1"><metadata
   id="metadata23"><rdf:RDF><cc:Work
       rdf:about=""><dc:format>image/svg+xml</dc:format><dc:type
         rdf:resource="http://purl.org/dc/dcmitype/StillImage" /><dc:title></dc:title></cc:Work></rdf:RDF></metadata><defs
   id="defs21" /><sodipodi:namedview
   inkscape:current-layer="g16"
   inkscape:window-maximized="0"
   inkscape:window-y="67"
   inkscape:window-x="30"
   inkscape:cy="18.760703"
   inkscape:cx="41.888572"
   inkscape:zoom="15.657143"
   showgrid="false"
   id="namedview19"
   inkscape:window-height="943"
   inkscape:window-width="1727"
   inkscape:pageshadow="2"
   inkscape:pageopacity="0"
   guidetolerance="10"
   gridtolerance="10"
   objecttolerance="10"
   borderopacity="1"
   bordercolor="#666666"
   pagecolor="#ffffff" />
<style
   id="style10"
   type="text/css">
	.st0{fill:#4E555B;}
	.st1{fill:#386689;}
	.st2{fill:#414950;}
	.st3{fill:#707980;}
	.st4{fill:#484F56;}
	.st5{fill:#70797F;}
	.st6{fill:#577E9C;}
	.st7{fill:#4D5860;}
	.st8{fill:#424C53;}
	.st9{fill:#60676E;}
	.st10{fill:#60666B;}
	.st11{fill:#434A51;}
	.st12{fill:#565C62;}
	.st13{fill:#5E6469;}
	.st14{fill:#485056;}
	.st15{fill:#787F86;}
</style>
<g
   id="g16">
	<path
   id="path12"
   d="M50.6,6.1H19.4c-3.2,0-5.7,2.6-5.7,5.7v15.1c0,3.2,2.6,5.7,5.7,5.7h31.1c3.2,0,5.7-2.6,5.7-5.7V11.8   C56.3,8.6,53.7,6.1,50.6,6.1z M52.2,26.8c0,0.9-0.8,1.7-1.7,1.7H19.4c-0.9,0-1.7-0.8-1.7-1.7V11.8c0-0.9,0.8-1.7,1.7-1.7h31.1   c0.9,0,1.7,0.8,1.7,1.7V26.8z"
   class="st2" />
	
<g
   style="font-size:17.3333px;line-height:1.25;font-family:sans-serif;fill:#707980;fill-opacity:1"
   id="text1571"
   aria-label="&quot;Hi&quot;"><path
     id="path1573"
     style="font-style:normal;font-variant:normal;font-weight:normal;font-stretch:normal;font-size:17.3333px;font-family:Georgia;-inkscape-font-specification:Georgia"
     d="m 24.466348,14.193317 q 0,0.338541 -0.220052,1.303383 -0.220052,0.964842 -0.490885,2.505204 h -0.524738 q -0.194661,-1.252602 -0.440103,-2.386715 -0.236979,-1.134112 -0.236979,-1.421872 0,-0.389322 0.236979,-0.668618 0.236978,-0.279297 0.719399,-0.279297 0.465494,0 0.710936,0.279297 0.245443,0.279296 0.245443,0.668618 z m -3.233067,0 q 0,0.338541 -0.220052,1.303383 -0.220051,0.964842 -0.490884,2.505204 H 20.00607 q -0.228515,-1.4388 -0.457031,-2.454423 -0.220051,-1.024086 -0.220051,-1.354164 0,-0.389322 0.236978,-0.668618 0.236979,-0.279297 0.7194,-0.279297 0.45703,0 0.702473,0.279297 0.245442,0.279296 0.245442,0.668618 z" /><path
     id="path1575"
     style="font-style:normal;font-variant:normal;font-weight:normal;font-stretch:normal;font-size:17.3333px;font-family:Georgia;-inkscape-font-specification:Georgia"
     d="m 38.735851,26.186132 h -4.985016 v -0.60091 q 0.203124,-0.01693 0.583983,-0.05078 0.389322,-0.03385 0.533202,-0.101562 0.253906,-0.101563 0.372395,-0.304687 0.118489,-0.211588 0.118489,-0.541666 v -4.27408 h -5.645171 v 4.180981 q 0,0.296224 0.0931,0.499348 0.101562,0.203125 0.389322,0.355468 0.14388,0.07617 0.507812,0.152344 0.372395,0.07617 0.583983,0.08464 v 0.60091 h -4.985017 v -0.60091 q 0.203125,-0.01693 0.583984,-0.05078 0.389322,-0.03385 0.533202,-0.101562 0.253905,-0.101563 0.372395,-0.304687 0.118489,-0.211588 0.118489,-0.541666 v -8.66665 q 0,-0.270832 -0.110026,-0.490884 -0.110025,-0.228515 -0.380858,-0.355468 -0.228515,-0.110026 -0.558593,-0.194661 -0.321614,-0.08464 -0.558593,-0.101563 v -0.60091 h 4.985017 v 0.60091 q -0.236979,0.0085 -0.583983,0.07617 -0.338541,0.06771 -0.507812,0.126953 -0.28776,0.101562 -0.389322,0.338541 -0.0931,0.236979 -0.0931,0.516275 v 3.723951 h 5.645171 v -3.639316 q 0,-0.270832 -0.110025,-0.490884 -0.110026,-0.228515 -0.380859,-0.355468 -0.228515,-0.110026 -0.558593,-0.194661 -0.321614,-0.08464 -0.558592,-0.101563 v -0.60091 h 4.985016 v 0.60091 q -0.236979,0.0085 -0.583983,0.07617 -0.338541,0.06771 -0.507812,0.126953 -0.28776,0.101562 -0.389322,0.338541 -0.0931,0.236979 -0.0931,0.516275 v 8.658186 q 0,0.296224 0.0931,0.499348 0.101562,0.203125 0.389322,0.355468 0.14388,0.07617 0.507812,0.152344 0.372395,0.07617 0.583983,0.08464 z" /><path
     id="path1577"
     style="font-style:normal;font-variant:normal;font-weight:normal;font-stretch:normal;font-size:17.3333px;font-family:Georgia;-inkscape-font-specification:Georgia"
     d="M 44.25407,26.186132 H 40.216969 V 25.62754 q 0.194661,-0.01693 0.397785,-0.03385 0.211588,-0.01693 0.363932,-0.06771 0.236979,-0.07617 0.347004,-0.262369 0.11849,-0.194661 0.11849,-0.499348 v -5.154287 q 0,-0.270832 -0.126953,-0.490884 -0.118489,-0.228515 -0.338541,-0.380859 -0.160807,-0.101562 -0.465494,-0.16927 -0.304687,-0.07617 -0.558593,-0.0931 v -0.550129 l 2.945307,-0.186198 0.118489,0.11849 v 6.804674 q 0,0.296223 0.110026,0.490884 0.11849,0.194661 0.363932,0.28776 0.186197,0.07617 0.363931,0.126953 0.177734,0.04232 0.397786,0.05925 z M 43.187666,14.447223 q 0,0.482421 -0.321614,0.846352 -0.31315,0.355469 -0.778644,0.355469 -0.43164,0 -0.753254,-0.338541 -0.313151,-0.347005 -0.313151,-0.787108 0,-0.465494 0.313151,-0.812499 0.321614,-0.347004 0.753254,-0.347004 0.482421,0 0.787108,0.330077 0.31315,0.321614 0.31315,0.753254 z" /><path
     id="path1579"
     style="font-style:normal;font-variant:normal;font-weight:normal;font-stretch:normal;font-size:17.3333px;font-family:Georgia;-inkscape-font-specification:Georgia"
     d="m 50.804837,14.193317 q 0,0.338541 -0.220052,1.303383 -0.220051,0.964842 -0.490884,2.505204 h -0.524739 q -0.194661,-1.252602 -0.440103,-2.386715 -0.236979,-1.134112 -0.236979,-1.421872 0,-0.389322 0.236979,-0.668618 0.236979,-0.279297 0.7194,-0.279297 0.465494,0 0.710936,0.279297 0.245442,0.279296 0.245442,0.668618 z m -3.233067,0 q 0,0.338541 -0.220051,1.303383 -0.220052,0.964842 -0.490885,2.505204 h -0.516275 q -0.228515,-1.4388 -0.45703,-2.454423 -0.220052,-1.024086 -0.220052,-1.354164 0,-0.389322 0.236979,-0.668618 0.236979,-0.279297 0.7194,-0.279297 0.45703,0 0.702472,0.279297 0.245442,0.279296 0.245442,0.668618 z" /></g></g>
</svg>
