<?xml version="1.0" encoding="UTF-8" standalone="no"?>
<svg
   xmlns:dc="http://purl.org/dc/elements/1.1/"
   xmlns:cc="http://creativecommons.org/ns#"
   xmlns:rdf="http://www.w3.org/1999/02/22-rdf-syntax-ns#"
   xmlns:svg="http://www.w3.org/2000/svg"
   xmlns="http://www.w3.org/2000/svg"
   xmlns:sodipodi="http://sodipodi.sourceforge.net/DTD/sodipodi-0.dtd"
   xmlns:inkscape="http://www.inkscape.org/namespaces/inkscape"
   inkscape:version="1.0 (4035a4f, 2020-05-01)"
   sodipodi:docname="icon-ticket-active.svg"
   xml:space="preserve"
   style="enable-background:new 0 0 70 38.6;"
   viewBox="0 0 70 38.6"
   y="0px"
   x="0px"
   id="Layer_1"
   version="1.1"><metadata
   id="metadata23"><rdf:RDF><cc:Work
       rdf:about=""><dc:format>image/svg+xml</dc:format><dc:type
         rdf:resource="http://purl.org/dc/dcmitype/StillImage" /><dc:title></dc:title></cc:Work></rdf:RDF></metadata><defs
   id="defs21" /><sodipodi:namedview
   inkscape:current-layer="g16"
   inkscape:window-maximized="0"
   inkscape:window-y="67"
   inkscape:window-x="30"
   inkscape:cy="18.760703"
   inkscape:cx="41.888572"
   inkscape:zoom="15.657143"
   showgrid="false"
   id="namedview19"
   inkscape:window-height="943"
   inkscape:window-width="1727"
   inkscape:pageshadow="2"
   inkscape:pageopacity="0"
   guidetolerance="10"
   gridtolerance="10"
   objecttolerance="10"
   borderopacity="1"
   bordercolor="#666666"
   pagecolor="#ffffff" />
<style
   id="style10"
   type="text/css">
	.st0{fill:#4E555B;}
	.st1{fill:#386689;}
	.st2{fill:#414950;}
	.st3{fill:#707980;}
	.st4{fill:#484F56;}
	.st5{fill:#70797F;}
	.st6{fill:#577E9C;}
	.st7{fill:#4D5860;}
	.st8{fill:#424C53;}
	.st9{fill:#60676E;}
	.st10{fill:#60666B;}
	.st11{fill:#434A51;}
	.st12{fill:#565C62;}
	.st13{fill:#5E6469;}
	.st14{fill:#485056;}
	.st15{fill:#787F86;}
</style>
<g
   id="g16">
	<path
   style="stroke-width:0.8;fill:#386689;fill-opacity:1"
   id="path12"
   d="M 45.551396,31.868883 V 6.9088832 c 0,-2.56 -2.08,-4.56 -4.56,-4.56 h -12.08 c -2.56,0 -4.56,2.08 -4.56,4.56 V 31.788883 c 0,2.56 2.08,4.56 4.56,4.56 h 12.08 c 2.56,0.08 4.56,-2 4.56,-4.48 z m -16.56,1.28 c -0.72,0 -1.36,-0.64 -1.36,-1.36 V 6.9088832 c 0,-0.72 0.64,-1.36 1.36,-1.36 h 12 c 0.72,0 1.36,0.64 1.36,1.36 V 31.788883 c 0,0.72 -0.64,1.36 -1.36,1.36 z"
   class="st2" />
	
<path
   inkscape:transform-center-y="-0.39661004"
   inkscape:transform-center-x="-0.015325898"
   d="m 37.043797,22.609489 -2.515673,-1.359776 -2.546326,1.301473 0.515839,-2.812742 -2.024633,-2.019522 2.834479,-0.378593 1.295034,-2.549607 1.235966,2.578759 2.825007,0.443778 -2.07061,1.972354 z"
   inkscape:randomized="0"
   inkscape:rounded="0"
   inkscape:flatsided="false"
   sodipodi:arg2="1.5823136"
   sodipodi:arg1="0.9539951"
   sodipodi:r2="2.1531396"
   sodipodi:r1="4.3062792"
   sodipodi:cy="19.096716"
   sodipodi:cx="34.55292"
   sodipodi:sides="5"
   id="path1622"
   style="opacity:1;fill:#386689;fill-opacity:1"
   sodipodi:type="star" /></g>
</svg>
