<?xml version="1.0" encoding="UTF-8" standalone="no"?>
<svg
   xmlns:dc="http://purl.org/dc/elements/1.1/"
   xmlns:cc="http://creativecommons.org/ns#"
   xmlns:rdf="http://www.w3.org/1999/02/22-rdf-syntax-ns#"
   xmlns:svg="http://www.w3.org/2000/svg"
   xmlns="http://www.w3.org/2000/svg"
   xmlns:sodipodi="http://sodipodi.sourceforge.net/DTD/sodipodi-0.dtd"
   xmlns:inkscape="http://www.inkscape.org/namespaces/inkscape"
   inkscape:version="1.0 (4035a4f, 2020-05-01)"
   sodipodi:docname="icon-countdown.svg"
   xml:space="preserve"
   style="enable-background:new 0 0 70 38.6;"
   viewBox="0 0 70 38.6"
   y="0px"
   x="0px"
   id="Layer_1"
   version="1.1"><metadata
   id="metadata23"><rdf:RDF><cc:Work
       rdf:about=""><dc:format>image/svg+xml</dc:format><dc:type
         rdf:resource="http://purl.org/dc/dcmitype/StillImage" /><dc:title></dc:title></cc:Work></rdf:RDF></metadata><defs
   id="defs21" /><sodipodi:namedview
   inkscape:current-layer="g16"
   inkscape:window-maximized="0"
   inkscape:window-y="69"
   inkscape:window-x="51"
   inkscape:cy="13.745438"
   inkscape:cx="40.207795"
   inkscape:zoom="15.657143"
   showgrid="false"
   id="namedview19"
   inkscape:window-height="943"
   inkscape:window-width="1727"
   inkscape:pageshadow="2"
   inkscape:pageopacity="0"
   guidetolerance="10"
   gridtolerance="10"
   objecttolerance="10"
   borderopacity="1"
   bordercolor="#666666"
   pagecolor="#ffffff" />
<style
   id="style10"
   type="text/css">
	.st0{fill:#4E555B;}
	.st1{fill:#386689;}
	.st2{fill:#414950;}
	.st3{fill:#707980;}
	.st4{fill:#484F56;}
	.st5{fill:#70797F;}
	.st6{fill:#577E9C;}
	.st7{fill:#4D5860;}
	.st8{fill:#424C53;}
	.st9{fill:#60676E;}
	.st10{fill:#60666B;}
	.st11{fill:#434A51;}
	.st12{fill:#565C62;}
	.st13{fill:#5E6469;}
	.st14{fill:#485056;}
	.st15{fill:#787F86;}
</style>
<g
   id="g16">
	<path
   id="path12"
   d="M50.6,6.1H19.4c-3.2,0-5.7,2.6-5.7,5.7v15.1c0,3.2,2.6,5.7,5.7,5.7h31.1c3.2,0,5.7-2.6,5.7-5.7V11.8   C56.3,8.6,53.7,6.1,50.6,6.1z M52.2,26.8c0,0.9-0.8,1.7-1.7,1.7H19.4c-0.9,0-1.7-0.8-1.7-1.7V11.8c0-0.9,0.8-1.7,1.7-1.7h31.1   c0.9,0,1.7,0.8,1.7,1.7V26.8z"
   class="st2" />
	
<g
   style="font-style:normal;font-variant:normal;font-weight:normal;font-stretch:normal;font-size:10.6667px;line-height:1.25;font-family:'Arial Narrow';-inkscape-font-specification:'Arial Narrow';opacity:1;fill:#707980;fill-opacity:1;stroke:none"
   id="text852"
   aria-label="03:25:03"><path
     id="path1466"
     style="font-style:normal;font-variant:normal;font-weight:normal;font-stretch:normal;font-size:10.6667px;font-family:'Arial Narrow';-inkscape-font-specification:'Arial Narrow';fill:#707980;fill-opacity:1"
     d="m 18.171954,19.610275 q 0,-1.921881 0.515626,-2.911468 0.520835,-0.989586 1.531255,-0.989586 0.895836,0 1.411463,0.802086 0.625002,0.968753 0.625002,3.098968 0,1.911464 -0.515627,2.906259 -0.515626,0.989586 -1.531255,0.989586 -0.895836,0 -1.468754,-0.875002 -0.56771,-0.875003 -0.56771,-3.020843 z m 0.78646,0 q 0,1.859381 0.354168,2.494799 0.359376,0.630211 0.91667,0.630211 0.526043,0 0.880211,-0.640627 0.354168,-0.640627 0.354168,-2.484383 0,-1.864589 -0.359376,-2.4948 -0.354168,-0.63021 -0.921878,-0.63021 -0.520835,0 -0.875003,0.640627 -0.34896,0.640627 -0.34896,2.484383 z" /><path
     id="path1468"
     style="font-style:normal;font-variant:normal;font-weight:normal;font-stretch:normal;font-size:10.6667px;font-family:'Arial Narrow';-inkscape-font-specification:'Arial Narrow';fill:#707980;fill-opacity:1"
     d="m 23.052177,21.36028 0.770836,-0.125 q 0.239584,1.500005 1.213546,1.500005 0.526043,0 0.911461,-0.44271 0.385418,-0.447918 0.385418,-1.156254 0,-0.666668 -0.354168,-1.07292 -0.354168,-0.406251 -0.869795,-0.406251 -0.21875,0 -0.541668,0.104167 l 0.08854,-0.822919 0.119792,0.01042 q 0.56771,0 0.921878,-0.348959 0.354168,-0.348959 0.354168,-0.932295 0,-0.53646 -0.296876,-0.859377 -0.296876,-0.328126 -0.723961,-0.328126 -0.44271,0 -0.750002,0.343751 -0.302084,0.338542 -0.385418,1.031253 l -0.765627,-0.166667 q 0.145833,-0.97917 0.656252,-1.479172 0.510418,-0.500001 1.234378,-0.500001 0.76042,0 1.291671,0.562502 0.531252,0.562501 0.531252,1.416671 0,0.520835 -0.229167,0.921878 -0.22396,0.401043 -0.630211,0.63021 0.375001,0.104167 0.619794,0.343751 0.244792,0.239584 0.395834,0.640627 0.151043,0.401043 0.151043,0.895836 0,1.052087 -0.619794,1.723964 -0.619794,0.666669 -1.48438,0.666669 -0.802086,0 -1.359379,-0.583335 -0.557293,-0.583336 -0.635419,-1.567714 z" /><path
     id="path1470"
     style="font-style:normal;font-variant:normal;font-weight:normal;font-stretch:normal;font-size:10.6667px;font-family:'Arial Narrow';-inkscape-font-specification:'Arial Narrow';fill:#707980;fill-opacity:1"
     d="m 28.380319,18.912356 v -1.067712 h 0.875003 v 1.067712 z m 0,4.463556 V 22.3082 h 0.875003 v 1.067712 z" /><path
     id="path1472"
     style="font-style:normal;font-variant:normal;font-weight:normal;font-stretch:normal;font-size:10.6667px;font-family:'Arial Narrow';-inkscape-font-specification:'Arial Narrow';fill:#707980;fill-opacity:1"
     d="m 34.411588,22.474867 v 0.901045 H 30.27095 q -0.01563,-0.546877 0.328126,-1.223962 0.348959,-0.677086 1.270837,-1.598964 1.078129,-1.07292 1.411463,-1.656255 0.333334,-0.588544 0.333334,-1.093754 0,-0.583335 -0.343751,-0.947919 -0.338542,-0.369793 -0.838544,-0.369793 -0.53646,0 -0.880211,0.395835 -0.343751,0.395834 -0.343751,1.13542 l -0.791669,-0.09896 q 0.08333,-1.098962 0.619793,-1.651047 0.541669,-0.557293 1.42188,-0.557293 0.958336,0 1.447921,0.645835 0.494793,0.645836 0.494793,1.468755 0,0.729169 -0.385418,1.401046 -0.385418,0.666669 -1.463546,1.781256 -0.687502,0.703127 -0.890628,0.958336 -0.197917,0.255209 -0.322917,0.510418 z" /><path
     id="path1474"
     style="font-style:normal;font-variant:normal;font-weight:normal;font-stretch:normal;font-size:10.6667px;font-family:'Arial Narrow';-inkscape-font-specification:'Arial Narrow';fill:#707980;fill-opacity:1"
     d="m 35.234507,21.375905 0.807294,-0.08333 q 0.09375,0.729169 0.421877,1.088545 0.333334,0.354168 0.770835,0.354168 0.546877,0 0.942712,-0.500002 0.395834,-0.50521 0.395834,-1.375004 0,-0.817711 -0.385418,-1.265629 -0.380209,-0.453127 -0.958336,-0.453127 -0.348959,0 -0.656252,0.197918 -0.302084,0.192709 -0.479168,0.541668 l -0.723961,-0.114584 0.609377,-3.921887 h 3.109385 v 0.895836 h -2.4948 l -0.338542,2.05209 q 0.557293,-0.479168 1.182295,-0.479168 0.786461,0 1.364588,0.671877 0.583335,0.666669 0.583335,1.802089 0,1.119795 -0.583335,1.921881 -0.578127,0.796877 -1.557297,0.796877 -0.812502,0 -1.375004,-0.562501 -0.557294,-0.56771 -0.635419,-1.567714 z" /><path
     id="path1476"
     style="font-style:normal;font-variant:normal;font-weight:normal;font-stretch:normal;font-size:10.6667px;font-family:'Arial Narrow';-inkscape-font-specification:'Arial Narrow';fill:#707980;fill-opacity:1"
     d="m 40.567857,18.912356 v -1.067712 h 0.875003 v 1.067712 z m 0,4.463556 V 22.3082 h 0.875003 v 1.067712 z" /><path
     id="path1478"
     style="font-style:normal;font-variant:normal;font-weight:normal;font-stretch:normal;font-size:10.6667px;font-family:'Arial Narrow';-inkscape-font-specification:'Arial Narrow';fill:#707980;fill-opacity:1"
     d="m 42.54703,19.610275 q 0,-1.921881 0.515627,-2.911468 0.520835,-0.989586 1.531254,-0.989586 0.895837,0 1.411463,0.802086 0.625002,0.968753 0.625002,3.098968 0,1.911464 -0.515626,2.906259 -0.515627,0.989586 -1.531255,0.989586 -0.895836,0 -1.468755,-0.875002 -0.56771,-0.875003 -0.56771,-3.020843 z m 0.786461,0 q 0,1.859381 0.354168,2.494799 0.359376,0.630211 0.916669,0.630211 0.526043,0 0.880211,-0.640627 0.354168,-0.640627 0.354168,-2.484383 0,-1.864589 -0.359376,-2.4948 -0.354168,-0.63021 -0.921878,-0.63021 -0.520835,0 -0.875003,0.640627 -0.348959,0.640627 -0.348959,2.484383 z" /><path
     id="path1480"
     style="font-style:normal;font-variant:normal;font-weight:normal;font-stretch:normal;font-size:10.6667px;font-family:'Arial Narrow';-inkscape-font-specification:'Arial Narrow';fill:#707980;fill-opacity:1"
     d="m 47.427254,21.36028 0.770835,-0.125 q 0.239584,1.500005 1.213546,1.500005 0.526043,0 0.911461,-0.44271 0.385418,-0.447918 0.385418,-1.156254 0,-0.666668 -0.354168,-1.07292 -0.354168,-0.406251 -0.869794,-0.406251 -0.218751,0 -0.541669,0.104167 l 0.08854,-0.822919 0.119792,0.01042 q 0.56771,0 0.921878,-0.348959 0.354168,-0.348959 0.354168,-0.932295 0,-0.53646 -0.296876,-0.859377 -0.296876,-0.328126 -0.723961,-0.328126 -0.442709,0 -0.750002,0.343751 -0.302084,0.338542 -0.385418,1.031253 l -0.765627,-0.166667 q 0.145834,-0.97917 0.656252,-1.479172 0.510418,-0.500001 1.234379,-0.500001 0.760419,0 1.291671,0.562502 0.531251,0.562501 0.531251,1.416671 0,0.520835 -0.229167,0.921878 -0.223959,0.401043 -0.63021,0.63021 0.375001,0.104167 0.619793,0.343751 0.244793,0.239584 0.395835,0.640627 0.151042,0.401043 0.151042,0.895836 0,1.052087 -0.619794,1.723964 -0.619793,0.666669 -1.484379,0.666669 -0.802086,0 -1.35938,-0.583335 -0.557293,-0.583336 -0.635418,-1.567714 z" /></g></g>
</svg>
