<svg xmlns="http://www.w3.org/2000/svg" xmlns:xlink="http://www.w3.org/1999/xlink" width="70" height="38" viewBox="0 0 70 38">
  <defs>
    <clipPath id="clip-counter_1">
      <rect width="70" height="38"/>
    </clipPath>
  </defs>
  <g id="counter_1" data-name="counter – 1" clip-path="url(#clip-counter_1)">
    <g id="Group_1149" data-name="Group 1149" transform="translate(-0.5 -0.5)">
      <path id="Path_35" data-name="Path 35" d="M52.289,33.221c0,.845-.961,1.529-2.147,1.529H5.063c-1.186,0-2.147-.685-2.147-1.529V10.279c0-.845.961-1.529,2.147-1.529H50.142c1.186,0,2.147.685,2.147,1.529Z" transform="translate(7.583 -2.25)" fill="none" stroke="#386689" stroke-linecap="round" stroke-linejoin="round" stroke-width="2"/>
      <g id="Group_1147" data-name="Group 1147" transform="translate(0 0.28)">
        <g id="Group_992" data-name="Group 992" transform="translate(54.186 24.962) rotate(180)">
          <path id="Path_1" data-name="Path 1" d="M0,0V11.242" transform="translate(3.074)" fill="none" stroke="#386689" stroke-linecap="round" stroke-linejoin="round" stroke-width="2"/>
          <path id="Path_2" data-name="Path 2" d="M0,0,3.074,2.248,6.148,0" transform="translate(0 8.994)" fill="none" stroke="#386689" stroke-linecap="round" stroke-linejoin="round" stroke-width="2"/>
        </g>
        <g id="Group_993" data-name="Group 993" transform="translate(16 13.72)">
          <path id="Path_3" data-name="Path 3" d="M93.333,49.572h7" transform="translate(-93.333 -38.298)" fill="none" stroke="#386689" stroke-linecap="round" stroke-linejoin="round" stroke-width="2"/>
          <path id="Path_4" data-name="Path 4" d="M96.833,14.2V3.625a.705.705,0,0,0-.4-.634.7.7,0,0,0-.74.085l-2.363,1.9" transform="translate(-93.333 -2.921)" fill="none" stroke="#386689" stroke-linecap="round" stroke-linejoin="round" stroke-width="2"/>
        </g>
        <g id="Group_994" data-name="Group 994" transform="translate(25.533 13.72)">
          <path id="Path_5" data-name="Path 5" d="M90.417,93.929a3.5,3.5,0,1,0,3.5-3.524A3.512,3.512,0,0,0,90.417,93.929Z" transform="translate(-90.417 -90.405)" fill="none" stroke="#386689" stroke-linecap="round" stroke-linejoin="round" stroke-width="2"/>
          <path id="Path_6" data-name="Path 6" d="M104.067,105v3.524a4.215,4.215,0,0,1-4.2,4.229h-.7" transform="translate(-97.067 -101.473)" fill="none" stroke="#386689" stroke-linecap="round" stroke-linejoin="round" stroke-width="2"/>
        </g>
        <g id="Group_1146" data-name="Group 1146" transform="translate(35.533 13.72)">
          <path id="Path_5-2" data-name="Path 5" d="M90.417,93.929a3.5,3.5,0,1,0,3.5-3.524A3.512,3.512,0,0,0,90.417,93.929Z" transform="translate(-90.417 -90.405)" fill="none" stroke="#386689" stroke-linecap="round" stroke-linejoin="round" stroke-width="2"/>
          <path id="Path_6-2" data-name="Path 6" d="M104.067,105v3.524a4.215,4.215,0,0,1-4.2,4.229h-.7" transform="translate(-97.067 -101.473)" fill="none" stroke="#386689" stroke-linecap="round" stroke-linejoin="round" stroke-width="2"/>
        </g>
      </g>
    </g>
  </g>
</svg>
