<svg xmlns="http://www.w3.org/2000/svg" xmlns:xlink="http://www.w3.org/1999/xlink" width="70" height="38" viewBox="0 0 70 38">
  <defs>
    <clipPath id="clip-fancy-heading">
      <rect width="70" height="38"/>
    </clipPath>
  </defs>
  <g id="fancy-heading" clip-path="url(#clip-fancy-heading)">
    <g id="Group_1000" transform="translate(-1336.9 70.404)">
      <path id="Path_22" d="M1380.3-64.1l1,2.4h2a.472.472,0,0,1,.5.5.758.758,0,0,1-.2.4l-1.7,1.5,1,2.2a.517.517,0,0,1-.3.7.446.446,0,0,1-.5,0l-2.3-1.3-2.3,1.3c-.3.1-.6.1-.7-.2a.446.446,0,0,1,0-.5l1-2.2-1.7-1.5a.483.483,0,0,1,0-.7.519.519,0,0,1,.4-.2h2l1-2.4a.442.442,0,0,1,.7-.2.35.35,0,0,1,.1.2Z" fill="none" stroke="#565c62" stroke-linecap="round" stroke-linejoin="round" stroke-width="2"/>
      <g id="streamline-icon-font-size_140x140-2" transform="translate(1356.9 -64.005)">
        <path id="Path_23-2" d="M-473.6,30.775-482.2,5.6a.68.68,0,0,0-.8-.4.78.78,0,0,0-.4.4L-492,30.775" transform="translate(494.1 -5.174)" fill="none" stroke="#565c62" stroke-linecap="round" stroke-linejoin="round" stroke-width="2"/>
        <path id="Path_24-2" d="M-488.8,21.5h12" transform="translate(494.1 -5.19)" fill="none" stroke="#565c62" stroke-linecap="round" stroke-linejoin="round" stroke-width="2"/>
        <path id="Path_25-2" d="M-494.1,30.8h4" transform="translate(494.1 -5.199)" fill="none" stroke="#565c62" stroke-linecap="round" stroke-linejoin="round" stroke-width="2"/>
        <path id="Path_26-2" d="M-475.6,30.8h4" transform="translate(494.1 -5.199)" fill="none" stroke="#565c62" stroke-linecap="round" stroke-linejoin="round" stroke-width="2"/>
        <path id="Path_27-2" d="M-465,30.8l-5.4-15.9a.68.68,0,0,0-.8-.4.781.781,0,0,0-.4.4l-2.5,7.3" transform="translate(494.1 -5.199)" fill="none" stroke="#565c62" stroke-linecap="round" stroke-linejoin="round" stroke-width="2"/>
        <path id="Path_28-2" d="M-472.4,24.2h5.1" transform="translate(494.1 -5.193)" fill="none" stroke="#565c62" stroke-linecap="round" stroke-linejoin="round" stroke-width="2"/>
        <path id="Path_29-2" d="M-466.3,30.8h2.6" transform="translate(494.1 -5.199)" fill="none" stroke="#565c62" stroke-linecap="round" stroke-linejoin="round" stroke-width="2"/>
      </g>
    </g>
  </g>
</svg>
