<svg xmlns="http://www.w3.org/2000/svg" xmlns:xlink="http://www.w3.org/1999/xlink" width="70" height="38" viewBox="0 0 70 38">
  <defs>
    <clipPath id="clip-Instagram-feed_1">
      <rect width="70" height="38"/>
    </clipPath>
  </defs>
  <g id="Instagram-feed_1" data-name="Instagram-feed – 1" clip-path="url(#clip-Instagram-feed_1)">
    <g id="Group_1132" data-name="Group 1132" transform="translate(-2818 -78)">
      <g id="Group_1131" data-name="Group 1131" transform="translate(2848 87.652)">
        <path id="Path_164" data-name="Path 164" d="M35,40.261A5.261,5.261,0,1,0,40.261,35,5.261,5.261,0,0,0,35,40.261Z" transform="translate(-35 -31)" fill="none" stroke="#386689" stroke-linecap="round" stroke-linejoin="round" stroke-width="2"/>
        <path id="Path_165" data-name="Path 165" d="M102.083,22.047a1.63,1.63,0,1,0,1.63-1.63A1.63,1.63,0,0,0,102.083,22.047Z" transform="translate(-92.583 -20.417)" fill="none" stroke="#386689" stroke-linecap="round" stroke-linejoin="round" stroke-width="2"/>
      </g>
      <path id="Path_38" data-name="Path 38" d="M46.417,4.217a1.3,1.3,0,0,0-1.3-1.3h-23.4a1.3,1.3,0,0,0-1.3,1.3v23.4a1.3,1.3,0,0,0,1.3,1.3h23.4a1.3,1.3,0,0,0,1.3-1.3Z" transform="translate(2819.583 81.083)" fill="none" stroke="#386689" stroke-linecap="round" stroke-linejoin="round" stroke-width="2"/>
    </g>
  </g>
</svg>
