<svg xmlns="http://www.w3.org/2000/svg" xmlns:xlink="http://www.w3.org/1999/xlink" width="70" height="38" viewBox="0 0 70 38">
  <defs>
    <clipPath id="clip-read-more">
      <rect width="70" height="38"/>
    </clipPath>
  </defs>
  <g id="read-more" clip-path="url(#clip-read-more)">
    <g id="Group_1138" data-name="Group 1138" transform="translate(0 -1)">
      <path id="Path_129" data-name="Path 129" d="M70.469,14.572H55.417" transform="translate(-30.417 -3.572)" fill="none" stroke="#565c62" stroke-linecap="round" stroke-linejoin="round" stroke-width="2"/>
      <path id="Path_130" data-name="Path 130" d="M74.575,37.9H55.417" transform="translate(-30.417 -21.431)" fill="none" stroke="#565c62" stroke-linecap="round" stroke-linejoin="round" stroke-width="2"/>
      <path id="Path_131" data-name="Path 131" d="M70.469,61.238H55.417" transform="translate(-30.417 -39.291)" fill="none" stroke="#565c62" stroke-linecap="round" stroke-linejoin="round" stroke-width="2"/>
      <path id="Path_186" data-name="Path 186" d="M37.917,44.75a1,1,0,1,0,1-1A1,1,0,0,0,37.917,44.75Z" transform="translate(-12.56 -16.632)" fill="none" stroke="#565c62" stroke-linecap="round" stroke-linejoin="round" stroke-width="2"/>
      <path id="Path_187" data-name="Path 187" d="M37.917,44.75a1,1,0,1,0,1-1A1,1,0,0,0,37.917,44.75Z" transform="translate(-6.56 -16.632)" fill="none" stroke="#565c62" stroke-linecap="round" stroke-linejoin="round" stroke-width="2"/>
      <path id="Path_188" data-name="Path 188" d="M37.917,44.75a1,1,0,1,0,1-1A1,1,0,0,0,37.917,44.75Z" transform="translate(-0.56 -16.632)" fill="none" stroke="#565c62" stroke-linecap="round" stroke-linejoin="round" stroke-width="2"/>
    </g>
  </g>
</svg>
