<svg width="16" height="16" fill="none" xmlns="http://www.w3.org/2000/svg"><circle cx="5.5" cy="13.5" r="1.5" fill="#B6E7FF"/><circle cx="12.5" cy="13.5" r="1.5" fill="#B6E7FF"/><path fill-rule="evenodd" clip-rule="evenodd" d="M.5 1h2.61a.5.5 0 0 1 .485.379l.31 1.242A.5.5 0 0 0 4.39 3h10.97a.5.5 0 0 1 .485.621l-1.75 7a.5.5 0 0 1-.485.379H7a.5.5 0 0 0 0 1h5.5a.5.5 0 0 1 0 1H5.4a.5.5 0 0 1-.488-.39L2.588 2.39A.5.5 0 0 0 2.101 2H.5a.5.5 0 0 1 0-1Zm14.25 3H4l1.333 6h7.917l1.5-6Z" fill="#B6E7FF"/><path d="M4 4h10.75l-1.5 6H5.333L4 4Z" fill="#B6E7FF" fill-opacity=".5"/></svg>