<svg width="16" height="16" fill="none" xmlns="http://www.w3.org/2000/svg"><path fill-rule="evenodd" clip-rule="evenodd" d="M7 1H0v6h7V1ZM6 5 5 2 4 4 3 3 1 5v1h5V5Z" fill="#B6E7FF"/><path fill="#B6E7FF" d="M0 8h7v1H0z"/><path d="M0 10h7v3H0v-3Z" fill="#B6E7FF" fill-opacity=".5"/><path fill="#B6E7FF" d="M0 14h3v1H0z"/><path fill-rule="evenodd" clip-rule="evenodd" d="M16 1H9v6h7V1Zm-1 4-1-3-1 2-1-1-2 2v1h5V5Z" fill="#B6E7FF"/><path fill="#B6E7FF" d="M9 8h7v1H9z"/><path d="M9 10h7v3H9v-3Z" fill="#B6E7FF" fill-opacity=".5"/><path fill="#B6E7FF" d="M9 14h3v1H9z"/></svg>