<svg width="16" height="16" fill="none" xmlns="http://www.w3.org/2000/svg"><path fill-rule="evenodd" clip-rule="evenodd" d="M5 0H0v4h5V0ZM2.5 1 1 3h3L2.5 1Z" fill="#B6E7FF"/><path fill="#B6E7FF" d="M6 0h10v1H6z"/><path d="M6 2h10v1h-1v1H6V2Z" fill="#B6E7FF" fill-opacity=".5"/><path fill-rule="evenodd" clip-rule="evenodd" d="M5 6H0v4h5V6ZM2.5 7 1 9h3L2.5 7Z" fill="#B6E7FF"/><path fill="#B6E7FF" d="M6 6h10v1H6z"/><path d="M6 8h10v1h-1v1H6V8Z" fill="#B6E7FF" fill-opacity=".5"/><path fill-rule="evenodd" clip-rule="evenodd" d="M5 12H0v4h5v-4Zm-2.5 1L1 15h3l-1.5-2Z" fill="#B6E7FF"/><path fill="#B6E7FF" d="M6 12h10v1H6z"/><path d="M6 14h10v1h-1v1H6v-2Z" fill="#B6E7FF" fill-opacity=".5"/></svg>