<svg width="16" height="16" fill="none" xmlns="http://www.w3.org/2000/svg"><path fill-rule="evenodd" clip-rule="evenodd" d="M6.32 1.054c-1.972.991-3.067 2.145-3.286 3.462-.341 2.05 2 3.053 3.186 2.152 1.186-.902.475-2.046-.384-2.359-.859-.313-1.384-.204-1.293-.622.092-.417 1.314-1.576 2.388-2.116.07-.047.098-.14.03-.21-.046-.045-.134-.135-.266-.27C6.58.975 6.469.98 6.32 1.055ZM12.32 1.054c-1.972.991-3.067 2.145-3.286 3.462-.341 2.05 2 3.053 3.186 2.152 1.186-.902.475-2.046-.384-2.359-.859-.313-1.384-.204-1.293-.622.092-.417 1.314-1.576 2.388-2.116.07-.047.098-.14.03-.21-.046-.045-.134-.135-.266-.27-.115-.117-.226-.112-.375-.037Z" fill="#B6E7FF"/><path fill="#B6E7FF" d="M2 9h12v1H2zM1 11h14v1H1zM4 13h8v1H4z"/></svg>