<svg width="16" height="16" fill="none" xmlns="http://www.w3.org/2000/svg"><path d="M8 0C3.59 0 0 3.587 0 8c0 4.41 3.59 8 8 8s8-3.59 8-8c0-4.413-3.59-8-8-8ZM.806 8c0-1.042.223-2.032.623-2.926l3.432 9.4A7.199 7.199 0 0 1 .806 8ZM8 15.194a7.166 7.166 0 0 1-2.032-.294l2.158-6.271 2.21 6.058a.96.96 0 0 0 .051.1A7.201 7.201 0 0 1 8 15.193Zm.99-10.565c.433-.023.823-.068.823-.068.387-.045.342-.616-.045-.593 0 0-1.165.09-1.916.09-.707 0-1.894-.09-1.894-.09-.387-.023-.432.57-.045.593 0 0 .368.045.755.068L7.788 7.7l-1.575 4.72-2.62-7.791c.433-.023.823-.068.823-.068.387-.045.342-.616-.045-.593 0 0-1.165.09-1.916.09-.136 0-.294-.003-.465-.01A7.188 7.188 0 0 1 8 .806a7.18 7.18 0 0 1 4.858 1.888c-.032-.004-.061-.007-.094-.007-.706 0-1.206.616-1.206 1.278 0 .593.342 1.093.707 1.687.274.477.593 1.093.593 1.983 0 .617-.235 1.33-.548 2.326l-.716 2.397L8.99 4.63Zm2.626 9.587 2.197-6.351c.41-1.026.548-1.846.548-2.578 0-.264-.016-.51-.048-.739.561 1.026.88 2.2.88 3.452a7.184 7.184 0 0 1-3.577 6.216Z" fill="#B6E7FF"/></svg>